<svg width="24" height="24" viewBox="0 0 24 24" fill="none" xmlns="http://www.w3.org/2000/svg">
<path fill-rule="evenodd" clip-rule="evenodd" d="M18.0069 16.8046C19.2956 15.2474 20.0701 13.2492 20.0701 11.07C20.0701 6.09944 16.0406 2.07001 11.0701 2.07001C6.09951 2.07001 2.07007 6.09944 2.07007 11.07C2.07007 16.0406 6.09951 20.07 11.0701 20.07C13.2493 20.07 15.2476 19.2955 16.8048 18.0067L20.4691 21.6709C20.801 22.0029 21.3392 22.0029 21.6711 21.6709C22.0031 21.339 22.0031 20.8008 21.6711 20.4689L18.0069 16.8046ZM11.0701 18.402C7.02074 18.402 3.7381 15.1193 3.7381 11.07C3.7381 7.02068 7.02074 3.73804 11.0701 3.73804C15.1194 3.73804 18.402 7.02068 18.402 11.07C18.402 15.1193 15.1194 18.402 11.0701 18.402Z" fill="black"/>
</svg>
